<?xml version="1.0" encoding="utf-8" ?>
<svg baseProfile="tiny" height="256" version="1.2" width="256" xmlns="http://www.w3.org/2000/svg" xmlns:ev="http://www.w3.org/2001/xml-events" xmlns:xlink="http://www.w3.org/1999/xlink"><defs /><g fill="#7c3aed"><path d="M 40,64 h 60 a 30,30 0 0 1 30,30 v 0 a 30,30 0 0 1 -30,30 h -60 a 30,30 0 0 1 -30,-30 v -0 a 30,30 0 0 1 30,-30 z" fill="#7c3aed" /><path d="M 96,132 h 60 a 30,30 0 0 1 30,30 v 0 a 30,30 0 0 1 -30,30 h -60 a 30,30 0 0 1 -30,-30 v -0 a 30,30 0 0 1 30,-30 z" fill="#7c3aed" /></g></svg>